<svg xmlns="http://www.w3.org/2000/svg"  viewBox="0 0 48 48" width="48px" height="48px" fill="#d6742d"><path fill="#d6742d" d="M36,6H12c-3.314,0-6,2.686-6,6v24c0,3.314,2.686,6,6,6h24c3.314,0,6-2.686,6-6V12	C42,8.686,39.314,6,36,6z"/><path fill="#ca4e2a" d="M36,40H12c-2.209,0-4-1.791-4-4V12c0-2.209,1.791-4,4-4h24c2.209,0,4,1.791,4,4v24	C40,38.209,38.209,40,36,40z"/><path fill="#fff" d="M26.346,31.999h-2.129c-0.23,0-0.431-0.157-0.486-0.381l-0.735-3.007 c-0.055-0.224-0.255-0.381-0.486-0.381h-3.816c-0.231,0-0.432,0.158-0.486,0.382l-0.727,3.005 c-0.054,0.224-0.255,0.382-0.486,0.382h-2.107c-0.331,0-0.57-0.315-0.482-0.634l4.433-15.944c0.06-0.216,0.257-0.366,0.482-0.366 h2.694c0.226,0,0.423,0.151,0.483,0.369l4.33,15.944C26.915,31.686,26.675,31.999,26.346,31.999z M21.598,25.3 c0.324,0,0.563-0.304,0.486-0.619l-1.239-5.078c-0.102-0.425-0.174-0.934-0.216-1.524h-0.072c-0.03,0.497-0.105,0.989-0.226,1.478 l-1.256,5.124c-0.077,0.315,0.161,0.619,0.486,0.619H21.598z"/><path fill="#fff" d="M30.357,17.986c-0.481,0-0.875-0.188-1.182-0.562s-0.46-0.833-0.46-1.377 c0-0.559,0.153-1.016,0.46-1.37s0.7-0.532,1.182-0.532c0.487,0,0.883,0.178,1.187,0.532S32,15.489,32,16.047 c0,0.567-0.152,1.032-0.456,1.395S30.844,17.986,30.357,17.986z M31.265,31.999h-1.852c-0.276,0-0.5-0.224-0.5-0.5V20.4 c0-0.276,0.224-0.5,0.5-0.5h1.852c0.276,0,0.5,0.224,0.5,0.5v11.1C31.765,31.775,31.542,31.999,31.265,31.999z"/></svg>